<svg width="116" height="48" viewBox="0 0 116 48" fill="none" xmlns="http://www.w3.org/2000/svg">
<path d="M8.096 18.7255C8.096 17.4814 9.12 17.0029 10.816 17.0029C13.248 17.0029 16.32 17.7366 18.752 19.0445V11.5479C16.096 10.4952 13.472 10.0805 10.816 10.0805C4.32 10.0805 0 13.4619 0 19.1083C0 27.9128 12.16 26.5092 12.16 30.3053C12.16 31.7727 10.88 32.2512 9.088 32.2512C6.432 32.2512 3.04 31.1666 0.352 29.6992V37.2915C3.328 38.5675 6.336 39.1098 9.088 39.1098C15.744 39.1098 20.32 35.8241 20.32 30.1139C20.288 20.6076 8.096 22.2983 8.096 18.7255ZM29.728 3.70044L21.92 5.35925L21.888 30.9114C21.888 35.6327 25.44 39.1098 30.176 39.1098C32.8 39.1098 34.72 38.6313 35.776 38.0571V31.5813C34.752 31.996 29.696 33.4634 29.696 28.7422V17.4176H35.776V10.6228H29.696L29.728 3.70044ZM45.728 12.9834L45.216 10.6228H38.304V38.5356H46.304V19.6187C48.192 17.1624 51.392 17.609 52.384 17.9599V10.6228C51.36 10.24 47.616 9.53819 45.728 12.9834ZM54.336 10.6228H62.368V38.5356H54.336V10.6228ZM54.336 8.19838L62.368 6.47576V0L54.336 1.69072V8.19838ZM79.072 10.0805C75.936 10.0805 73.92 11.5479 72.8 12.5687L72.384 10.5909H65.344V47.7867L73.344 46.096L73.376 37.0682C74.528 37.8976 76.224 39.0779 79.04 39.0779C84.768 39.0779 89.984 34.4842 89.984 24.3718C89.952 15.1207 84.672 10.0805 79.072 10.0805ZM77.152 32.0598C75.264 32.0598 74.144 31.3899 73.376 30.5605L73.344 18.7255C74.176 17.8004 75.328 17.1624 77.152 17.1624C80.064 17.1624 82.08 20.4162 82.08 24.5951C82.08 28.8698 80.096 32.0598 77.152 32.0598ZM115.2 24.6908C115.2 16.5244 111.232 10.0805 103.648 10.0805C96.032 10.0805 91.424 16.5244 91.424 24.627C91.424 34.229 96.864 39.0779 104.672 39.0779C108.48 39.0779 111.36 38.2166 113.536 37.0044V30.6243C111.36 31.7089 108.864 32.3788 105.696 32.3788C102.592 32.3788 99.84 31.2942 99.488 27.53H115.136C115.136 27.1153 115.2 25.4564 115.2 24.6908ZM99.392 21.6603C99.392 18.0556 101.6 16.5563 103.616 16.5563C105.568 16.5563 107.648 18.0556 107.648 21.6603H99.392Z" fill="#8C8880"/>
</svg>
